# xmcd CD database file
#
# Track frame offsets:
#	150
#	13037
#	24062
#	38515
#	51260
#	71655
#	84295
#	96390
#	109045
#	120395
#	132092
#	144545
#	159625
#
# Disc length: 2477 seconds
#
# Revision: 6
# Processed by: cddbd v1.5.2PL0 Copyright (c) Steve Scherf et al.
# Submitted via: CDex 1.51
#
DISCID=9e09ab0d
DTITLE=Mike Ness - Under the Influences
DYEAR=1999
DGENRE=Country
TTITLE0=All I Can Do Is Cry
TTITLE1=Gamblin' Man
TTITLE2=Let The Jukebox Keep On Playing
TTITLE3=I Fought the Law
TTITLE4=Big Iron
TTITLE5=One More Time
TTITLE6=Six More Miles
TTITLE7=A Thief In the Night
TTITLE8=Once A Day
TTITLE9=Funnel Of Love
TTITLE10=House Of Cold
TTITLE11=Wildwood Flower
TTITLE12=Ball And Chain (Honky Tonk)
EXTD=YEAR: 1999
EXTT0=
EXTT1=
EXTT2=
EXTT3=
EXTT4=
EXTT5=
EXTT6=
EXTT7=
EXTT8=
EXTT9=
EXTT10=
EXTT11=
EXTT12=
PLAYORDER=
